<svg xmlns="http://www.w3.org/2000/svg" xmlns:xlink="http://www.w3.org/1999/xlink" width="200" zoomAndPan="magnify" viewBox="0 0 150 149.999998" height="200" preserveAspectRatio="xMidYMid meet" version="1.0"><path fill="#ffcc00" d="M 100 100 L 100 75 L 75 75 L 75 100 C 75 113.808594 86.191406 125 100 125 L 75 150 L 100 150 L 125 125 L 125 112.5 C 131.902344 112.5 137.5 118.097656 137.5 125 L 125 125 L 125 150 L 150 150 L 150 125 L 137.5 125 C 144.402344 125 150 119.402344 150 112.5 C 143.097656 112.5 137.5 106.902344 137.5 100 C 130.597656 100 125 105.597656 125 112.5 L 125 100 Z M 80.199219 94.800781 L 80.199219 80.199219 L 94.800781 80.199219 L 94.800781 94.800781 Z M 119.800781 105.199219 L 119.800781 119.800781 L 105.199219 119.800781 L 105.199219 105.199219 Z M 119.800781 105.199219 " fill-opacity="1" fill-rule="nonzero"/><path fill="#ffcc00" d="M 125 50 L 125 48.5 C 125 35.523438 114.476562 25 101.5 25 L 100 25 L 100 26.5 C 100 39.476562 110.523438 50 123.5 50 C 110.523438 50 100 60.523438 100 73.5 L 100 75 L 101.5 75 C 114.476562 75 125 64.476562 125 51.5 L 125 50 C 125 63.808594 136.191406 75 150 75 C 136.191406 75 125 86.191406 125 100 C 138.808594 100 150 88.808594 150 75 C 150 61.191406 138.808594 50 125 50 Z M 125 50 " fill-opacity="1" fill-rule="nonzero"/><path fill="#ffcc00" d="M 137.5 75 C 130.597656 75 125 69.402344 125 62.5 C 125 69.402344 119.402344 75 112.5 75 C 119.402344 75 125 80.597656 125 87.5 C 125 80.597656 130.597656 75 137.5 75 Z M 137.5 75 " fill-opacity="1" fill-rule="nonzero"/><path fill="#ffcc00" d="M 125 25 L 137.5 25 C 130.597656 25 125 30.597656 125 37.5 C 125 44.402344 130.597656 50 137.5 50 C 144.402344 50 150 44.402344 150 37.5 C 150 30.597656 144.402344 25 137.5 25 L 150 25 L 150 0 Z M 125 25 " fill-opacity="1" fill-rule="nonzero"/><path fill="#ffcc00" d="M 100 125 L 50 125 C 63.808594 125 75 113.808594 75 100 C 61.191406 100 50 111.191406 50 125 L 50 150 C 50 136.191406 38.808594 125 25 125 L 0 125 L 0 150 L 75 150 C 75 136.191406 86.191406 125 100 125 Z M 5.199219 144.800781 L 5.199219 130.199219 L 19.800781 130.199219 L 19.800781 144.800781 Z M 5.199219 144.800781 " fill-opacity="1" fill-rule="nonzero"/><path fill="#5566c0" d="M 125 37.5 C 125 36.679688 125.078125 35.867188 125.238281 35.0625 C 125.398438 34.257812 125.636719 33.476562 125.953125 32.714844 C 126.265625 31.957031 126.652344 31.238281 127.105469 30.554688 C 127.5625 29.871094 128.082031 29.242188 128.660156 28.660156 C 129.242188 28.082031 129.871094 27.5625 130.554688 27.105469 C 131.238281 26.652344 131.957031 26.265625 132.714844 25.953125 C 133.476562 25.636719 134.257812 25.398438 135.0625 25.238281 C 135.867188 25.078125 136.679688 25 137.5 25 C 138.320312 25 139.132812 25.078125 139.9375 25.238281 C 140.742188 25.398438 141.523438 25.636719 142.285156 25.953125 C 143.042969 26.265625 143.761719 26.652344 144.445312 27.105469 C 145.128906 27.5625 145.757812 28.082031 146.339844 28.660156 C 146.917969 29.242188 147.4375 29.871094 147.894531 30.554688 C 148.347656 31.238281 148.734375 31.957031 149.046875 32.714844 C 149.363281 33.476562 149.601562 34.257812 149.761719 35.0625 C 149.917969 35.867188 150 36.679688 150 37.5 C 150 38.320312 149.917969 39.132812 149.761719 39.9375 C 149.601562 40.742188 149.363281 41.523438 149.046875 42.285156 C 148.734375 43.042969 148.347656 43.761719 147.894531 44.445312 C 147.4375 45.128906 146.917969 45.757812 146.339844 46.339844 C 145.757812 46.917969 145.128906 47.4375 144.445312 47.894531 C 143.761719 48.347656 143.042969 48.734375 142.285156 49.046875 C 141.523438 49.363281 140.742188 49.601562 139.9375 49.761719 C 139.132812 49.921875 138.320312 50 137.5 50 C 136.679688 50 135.867188 49.921875 135.0625 49.761719 C 134.257812 49.601562 133.476562 49.363281 132.714844 49.046875 C 131.957031 48.734375 131.238281 48.347656 130.554688 47.894531 C 129.871094 47.4375 129.242188 46.917969 128.660156 46.339844 C 128.082031 45.757812 127.5625 45.128906 127.105469 44.445312 C 126.652344 43.761719 126.265625 43.042969 125.953125 42.285156 C 125.636719 41.523438 125.398438 40.742188 125.238281 39.9375 C 125.078125 39.132812 125 38.320312 125 37.5 Z M 125 37.5 " fill-opacity="1" fill-rule="nonzero"/><path fill="#ff4e15" d="M 125 112.5 C 125 105.597656 130.597656 100 137.5 100 C 137.5 106.902344 143.097656 112.5 150 112.5 C 150 119.402344 144.402344 125 137.5 125 C 137.5 118.097656 131.902344 112.5 125 112.5 Z M 125 112.5 " fill-opacity="1" fill-rule="nonzero"/><path fill="#5566c0" d="M 50 150 L 50 125 L 75 125 L 75 150 Z M 50 150 " fill-opacity="1" fill-rule="nonzero"/><path fill="#242566" d="M 50 125 C 50 124.179688 50.039062 123.363281 50.121094 122.550781 C 50.199219 121.734375 50.320312 120.925781 50.480469 120.121094 C 50.640625 119.320312 50.839844 118.527344 51.078125 117.742188 C 51.3125 116.960938 51.589844 116.1875 51.902344 115.433594 C 52.214844 114.675781 52.566406 113.9375 52.953125 113.214844 C 53.339844 112.492188 53.757812 111.792969 54.214844 111.109375 C 54.667969 110.429688 55.15625 109.773438 55.675781 109.140625 C 56.195312 108.507812 56.742188 107.902344 57.324219 107.324219 C 57.902344 106.742188 58.507812 106.195312 59.140625 105.675781 C 59.773438 105.15625 60.429688 104.667969 61.109375 104.214844 C 61.792969 103.757812 62.492188 103.339844 63.214844 102.953125 C 63.9375 102.566406 64.675781 102.214844 65.433594 101.902344 C 66.1875 101.589844 66.960938 101.3125 67.742188 101.078125 C 68.527344 100.839844 69.320312 100.640625 70.121094 100.480469 C 70.925781 100.320312 71.734375 100.199219 72.550781 100.121094 C 73.363281 100.039062 74.179688 100 75 100 C 75 100.820312 74.960938 101.636719 74.878906 102.449219 C 74.800781 103.265625 74.679688 104.074219 74.519531 104.878906 C 74.359375 105.679688 74.160156 106.472656 73.921875 107.257812 C 73.6875 108.039062 73.410156 108.8125 73.097656 109.566406 C 72.785156 110.324219 72.433594 111.0625 72.046875 111.785156 C 71.660156 112.507812 71.242188 113.207031 70.785156 113.890625 C 70.332031 114.570312 69.84375 115.226562 69.324219 115.859375 C 68.804688 116.492188 68.257812 117.097656 67.675781 117.675781 C 67.097656 118.257812 66.492188 118.804688 65.859375 119.324219 C 65.226562 119.84375 64.570312 120.332031 63.890625 120.785156 C 63.207031 121.242188 62.507812 121.660156 61.785156 122.046875 C 61.0625 122.433594 60.324219 122.785156 59.566406 123.097656 C 58.8125 123.410156 58.039062 123.6875 57.257812 123.921875 C 56.472656 124.160156 55.679688 124.359375 54.878906 124.519531 C 54.074219 124.679688 53.265625 124.800781 52.449219 124.878906 C 51.636719 124.960938 50.820312 125 50 125 Z M 50 125 " fill-opacity="1" fill-rule="nonzero"/><path fill="#ff4e15" d="M 75 100 L 100 100 L 100 75 L 75 75 Z M 94.800781 80.199219 L 94.800781 94.800781 L 80.199219 94.800781 L 80.199219 80.199219 Z M 94.800781 80.199219 " fill-opacity="1" fill-rule="nonzero"/><path fill="#ff4e15" d="M 0 150 L 25 150 L 25 125 L 0 125 Z M 19.800781 130.199219 L 19.800781 144.800781 L 5.199219 144.800781 L 5.199219 130.199219 Z M 19.800781 130.199219 " fill-opacity="1" fill-rule="nonzero"/><path fill="#242566" d="M 100 125 L 125 125 L 125 100 L 100 100 Z M 119.800781 105.199219 L 119.800781 119.800781 L 105.199219 119.800781 L 105.199219 105.199219 Z M 119.800781 105.199219 " fill-opacity="1" fill-rule="nonzero"/><path fill="#242566" d="M 125 50 C 125.820312 50 126.636719 50.039062 127.449219 50.121094 C 128.265625 50.199219 129.074219 50.320312 129.878906 50.480469 C 130.679688 50.640625 131.472656 50.839844 132.257812 51.078125 C 133.039062 51.3125 133.8125 51.589844 134.566406 51.902344 C 135.324219 52.214844 136.0625 52.566406 136.785156 52.953125 C 137.507812 53.339844 138.207031 53.757812 138.890625 54.214844 C 139.570312 54.667969 140.226562 55.15625 140.859375 55.675781 C 141.492188 56.195312 142.097656 56.742188 142.675781 57.324219 C 143.257812 57.902344 143.804688 58.507812 144.324219 59.140625 C 144.84375 59.773438 145.332031 60.429688 145.785156 61.109375 C 146.242188 61.792969 146.660156 62.492188 147.046875 63.214844 C 147.433594 63.9375 147.785156 64.675781 148.097656 65.433594 C 148.410156 66.1875 148.6875 66.960938 148.921875 67.742188 C 149.160156 68.527344 149.359375 69.320312 149.519531 70.121094 C 149.679688 70.925781 149.800781 71.734375 149.878906 72.550781 C 149.960938 73.363281 150 74.179688 150 75 C 149.179688 75 148.363281 74.960938 147.550781 74.878906 C 146.734375 74.800781 145.925781 74.679688 145.121094 74.519531 C 144.320312 74.359375 143.527344 74.160156 142.742188 73.921875 C 141.960938 73.6875 141.1875 73.410156 140.433594 73.097656 C 139.675781 72.785156 138.9375 72.433594 138.214844 72.046875 C 137.492188 71.660156 136.792969 71.242188 136.109375 70.785156 C 135.429688 70.332031 134.773438 69.84375 134.140625 69.324219 C 133.507812 68.804688 132.902344 68.257812 132.324219 67.675781 C 131.742188 67.097656 131.195312 66.492188 130.675781 65.859375 C 130.15625 65.226562 129.667969 64.570312 129.214844 63.890625 C 128.757812 63.207031 128.339844 62.507812 127.953125 61.785156 C 127.566406 61.0625 127.214844 60.324219 126.902344 59.566406 C 126.589844 58.8125 126.3125 58.039062 126.078125 57.257812 C 125.839844 56.472656 125.640625 55.679688 125.480469 54.878906 C 125.320312 54.074219 125.199219 53.265625 125.121094 52.449219 C 125.039062 51.636719 125 50.820312 125 50 Z M 125 50 " fill-opacity="1" fill-rule="nonzero"/><path fill="#ff4e15" d="M 100 75 L 100 73.5 C 100 72.730469 100.039062 71.960938 100.113281 71.195312 C 100.1875 70.429688 100.300781 69.671875 100.453125 68.914062 C 100.601562 68.160156 100.789062 67.414062 101.011719 66.679688 C 101.234375 65.941406 101.496094 65.21875 101.789062 64.507812 C 102.082031 63.796875 102.410156 63.101562 102.773438 62.421875 C 103.136719 61.742188 103.53125 61.085938 103.960938 60.445312 C 104.386719 59.804688 104.847656 59.1875 105.335938 58.589844 C 105.824219 57.996094 106.339844 57.425781 106.882812 56.882812 C 107.425781 56.339844 107.996094 55.824219 108.589844 55.335938 C 109.1875 54.847656 109.804688 54.386719 110.445312 53.960938 C 111.085938 53.53125 111.742188 53.136719 112.421875 52.773438 C 113.101562 52.410156 113.796875 52.082031 114.507812 51.789062 C 115.21875 51.496094 115.941406 51.234375 116.679688 51.011719 C 117.414062 50.789062 118.160156 50.601562 118.914062 50.453125 C 119.671875 50.300781 120.429688 50.1875 121.195312 50.113281 C 121.960938 50.039062 122.730469 50 123.5 50 L 125 50 L 125 51.5 C 125 52.269531 124.960938 53.039062 124.886719 53.804688 C 124.8125 54.570312 124.699219 55.328125 124.546875 56.085938 C 124.398438 56.839844 124.210938 57.585938 123.988281 58.320312 C 123.765625 59.058594 123.503906 59.78125 123.210938 60.492188 C 122.917969 61.203125 122.589844 61.898438 122.226562 62.578125 C 121.863281 63.257812 121.46875 63.914062 121.039062 64.554688 C 120.613281 65.195312 120.152344 65.8125 119.664062 66.410156 C 119.175781 67.003906 118.660156 67.574219 118.117188 68.117188 C 117.574219 68.660156 117.003906 69.175781 116.410156 69.664062 C 115.8125 70.152344 115.195312 70.613281 114.554688 71.039062 C 113.914062 71.46875 113.257812 71.863281 112.578125 72.226562 C 111.898438 72.589844 111.203125 72.917969 110.492188 73.210938 C 109.78125 73.503906 109.058594 73.765625 108.320312 73.988281 C 107.585938 74.210938 106.839844 74.398438 106.085938 74.546875 C 105.328125 74.699219 104.570312 74.8125 103.804688 74.886719 C 103.039062 74.960938 102.269531 75 101.5 75 Z M 100 75 " fill-opacity="1" fill-rule="nonzero"/><path fill="#242566" d="M 112.5 75 C 119.402344 75 125 80.597656 125 87.5 C 125 80.597656 130.597656 75 137.5 75 C 130.597656 75 125 69.402344 125 62.5 C 125 69.402344 119.402344 75 112.5 75 Z M 112.5 75 " fill-opacity="1" fill-rule="nonzero"/><path fill="#242566" d="M 50 137.5 C 56.902344 137.5 62.5 143.097656 62.5 150 C 62.5 143.097656 68.097656 137.5 75 137.5 C 68.097656 137.5 62.5 131.902344 62.5 125 C 62.5 131.902344 56.902344 137.5 50 137.5 Z M 50 137.5 " fill-opacity="1" fill-rule="nonzero"/><path fill="#ff4e15" d="M 125 25 L 150 25 L 150 0 Z M 125 25 " fill-opacity="1" fill-rule="nonzero"/><path fill="#242566" d="M 75 150 L 75 125 L 100 125 C 86.191406 125 75 136.191406 75 150 Z M 75 150 " fill-opacity="1" fill-rule="nonzero"/><path fill="#242566" d="M 100 125 L 100 150 L 75 150 Z M 100 125 " fill-opacity="1" fill-rule="nonzero"/><path fill="#5566c0" d="M 100 125 L 100 150 L 125 125 Z M 100 125 " fill-opacity="1" fill-rule="nonzero"/></svg>